<svg width="31" height="30" viewBox="0 0 31 30" fill="none" xmlns="http://www.w3.org/2000/svg">
<path fill-rule="evenodd" clip-rule="evenodd" d="M10.3331 15H6.55309C6.1862 15.6355 5.61988 16.1321 4.94195 16.4129C4.26403 16.6937 3.51239 16.743 2.80361 16.5531C2.09483 16.3632 1.46853 15.9447 1.02183 15.3625C0.575133 14.7804 0.333008 14.0671 0.333008 13.3333C0.333008 12.5996 0.575133 11.8863 1.02183 11.3041C1.46853 10.722 2.09483 10.3035 2.80361 10.1136C3.51239 9.92366 4.26403 9.97293 4.94195 10.2537C5.61988 10.5345 6.1862 11.0312 6.55309 11.6667H10.3331V3.33333C10.3331 2.44928 10.6843 1.60143 11.3094 0.976311C11.9345 0.351189 12.7824 0 13.6664 0H26.9998C27.8838 0 28.7317 0.351189 29.3568 0.976311C29.9819 1.60143 30.3331 2.44928 30.3331 3.33333V26.6667C30.3331 27.5507 29.9819 28.3986 29.3568 29.0237C28.7317 29.6488 27.8838 30 26.9998 30H13.6664C12.7824 30 11.9345 29.6488 11.3094 29.0237C10.6843 28.3986 10.3331 27.5507 10.3331 26.6667V15ZM13.6664 15V26.6667H26.9998V3.33333H13.6664V11.6667H17.4464C17.8133 11.0312 18.3796 10.5345 19.0576 10.2537C19.7355 9.97293 20.4871 9.92366 21.1959 10.1136C21.9047 10.3035 22.531 10.722 22.9777 11.3041C23.4244 11.8863 23.6665 12.5996 23.6665 13.3333C23.6665 14.0671 23.4244 14.7804 22.9777 15.3625C22.531 15.9447 21.9047 16.3632 21.1959 16.5531C20.4871 16.743 19.7355 16.6937 19.0576 16.4129C18.3796 16.1321 17.8133 15.6355 17.4464 15H13.6664Z" fill="#F6550D"/>
</svg>
